<svg xmlns="http://www.w3.org/2000/svg" viewBox="0 0 128 128">
  <!-- 定义渐变和模式 -->
  <defs>
    <!-- 主背景渐变 -->
    <linearGradient id="bg-gradient" x1="0%" y1="0%" x2="100%" y2="100%">
      <stop offset="0%" style="stop-color:#0EA5E9" />
      <stop offset="50%" style="stop-color:#2563EB" />
      <stop offset="100%" style="stop-color:#4F46E5" />
    </linearGradient>

    <!-- 次级渐变组 -->
    <linearGradient id="accent-gradient-1" x1="0%" y1="0%" x2="100%" y2="0%">
      <stop offset="0%" style="stop-color:#00DFD8" />
      <stop offset="100%" style="stop-color:#007CF0" />
    </linearGradient>

    <linearGradient id="accent-gradient-2" x1="0%" y1="0%" x2="100%" y2="0%">
      <stop offset="0%" style="stop-color:#F59E0B" />
      <stop offset="100%" style="stop-color:#D97706" />
    </linearGradient>

    <linearGradient id="accent-gradient-3" x1="0%" y1="0%" x2="100%" y2="0%">
      <stop offset="0%" style="stop-color:#10B981" />
      <stop offset="100%" style="stop-color:#059669" />
    </linearGradient>

    <!-- 发光效果 -->
    <filter id="glow" x="-50%" y="-50%" width="200%" height="200%">
      <feGaussianBlur in="SourceGraphic" stdDeviation="2" />
      <feColorMatrix type="matrix" values="0 0 0 0 1   0 0 0 0 1   0 0 0 0 1  0 0 0 0.3 0" />
      <feMerge>
        <feMergeNode />
        <feMergeNode in="SourceGraphic" />
      </feMerge>
    </filter>
  </defs>

  <!-- 背景 -->
  <rect x="4" y="4" width="120" height="120" rx="28" fill="url(#bg-gradient)" />

  <!-- 动态六边形组 -->
  <g transform="translate(64 64)">
    <!-- 外圈六边形 -->
    <path d="M0,-50 L43.3,-25 L43.3,25 L0,50 L-43.3,25 L-43.3,-25 Z" fill="none" stroke="white" stroke-width="2"
      opacity="0.2" />

    <!-- 中圈六边形 -->
    <path d="M0,-40 L34.6,-20 L34.6,20 L0,40 L-34.6,20 L-34.6,-20 Z" fill="none" stroke="white" stroke-width="2"
      opacity="0.4" />

    <!-- 内圈六边形 -->
    <path d="M0,-30 L26,-15 L26,15 L0,30 L-26,15 L-26,-15 Z" fill="none" stroke="white" stroke-width="2"
      opacity="0.6" />
  </g>

  <!-- 中心创意元素 -->
  <g transform="translate(64 64)">
    <!-- 悬浮元素群 -->
    <!-- 圆形 -->
    <circle cx="-16" cy="-16" r="8" fill="url(#accent-gradient-1)" filter="url(#glow)" />

    <!-- 菱形 -->
    <path d="M4,-8 L12,-12 L20,-8 L12,-4 Z" fill="url(#accent-gradient-2)" transform="rotate(15)" filter="url(#glow)" />

    <!-- 三角形 -->
    <path d="M-8,12 L0,0 L8,12 Z" fill="url(#accent-gradient-3)" transform="rotate(-30)" filter="url(#glow)" />

    <!-- 六边形 -->
    <path d="M20,0 L23,5 L20,10 L14,10 L11,5 L14,0 Z" fill="url(#accent-gradient-1)" transform="rotate(45)"
      filter="url(#glow)" />

    <!-- 星形 -->
    <path d="M-20,-5 L-17,-7 L-15,-10 L-13,-7 L-10,-5 L-13,-3 L-15,0 L-17,-3 Z" fill="url(#accent-gradient-2)"
      transform="rotate(-15)" filter="url(#glow)" />
  </g>

  <!-- 装饰性连接线 -->
  <g stroke="white" stroke-width="1.5" opacity="0.6">
    <line x1="44" y1="64" x2="84" y2="64" />
    <line x1="64" y1="44" x2="64" y2="84" />
    <circle cx="64" cy="64" r="2" fill="white" />
  </g>
</svg>